<svg version="1.0" xmlns="http://www.w3.org/2000/svg" width="400" height="400" viewBox="0 0 300 300"><path d="M216.3 33.5c-7.8 3.4-17.7 21.4-28.3 51.5-10.4 29.7-46.7 128-47.5 128.8-.6.6-.3 1.4-7.5-21.8-3.4-10.7-9-30.3-12.6-43.5-3.6-13.2-9.7-35.3-13.6-49-3.8-13.8-8.5-31.9-10.4-40.2-1.8-8.4-4-16.6-4.9-18.3-5.1-9.8-21.1-8.7-25.7 1.8-3.1 7-1.5 15.9 10.2 57.2 4.3 15.1 11 39.3 14.9 53.8 12 44.1 27.1 91.1 33.4 104.2 2.7 5.4 3.9 6.9 7.7 8.8 5.1 2.6 8.7 2.8 13.5.8 4.3-1.8 7.6-6.8 14.3-21.9 4.5-9.9 10.4-25.3 40.1-105.7 3.8-10.2 10.1-27.7 14.1-39 7.2-20.4 11.1-29.3 18.9-42.5 3.1-5.3 4.1-8 4.1-11.4 0-5.8-3.2-10.8-8.4-13.2-4.9-2.2-8-2.3-12.3-.4z"/></svg>