<svg version="1.1" id="Layer_1" xmlns="http://www.w3.org/2000/svg" x="0" y="0" viewBox="0 0 1930 255.5" xml:space="preserve"><style>.st0{fill:none;stroke:#000;stroke-width:10;stroke-linecap:square;stroke-miterlimit:10}</style><path class="st0" d="M1224 171.8h-42.7l-42.1-42.2-74.2 74.3-94.5-93.5-94.5 93.2-74.2-74.2-42.1 42.1H717"/><path class="st0" d="M5 131.5h752.3l44.5 44.6 84.1-84.2-17.6-17.7-36.8 36.8 38.9 38.9 99.8-99.7 99.8 99.7 38.8-38.9-36.7-36.8-17.7 17.7 84.1 84.2 44.6-44.6H1925"/><path transform="rotate(-45.001 969.388 74.258)" class="st0" d="M921.9 26.7h95v95h-95z"/><path transform="rotate(-45.001 969.387 147.258)" class="st0" d="M921.9 99.7h95v95h-95z"/><path transform="rotate(-45.001 969.386 207.246)" class="st0" d="M940.3 178.1h58.2v58.2h-58.2z"/></svg>