<svg xmlns="http://www.w3.org/2000/svg" viewBox="0 0 470 470" width="512" height="512"><g fill="#3c3c3c"><path d="M458.739 286.94c-.142-68.941-26.604-134.161-74.549-183.705l-4.422-4.569a7.5 7.5 0 00-5.39-2.284H301.24v-1.235l11.373-32.754a7.498 7.498 0 00-5.495-9.789L65.33.171a7.5 7.5 0 00-8.675 9.79L86.24 95.148v44.895c-47.03 34.343-75 89.158-75 147.457 0 100.631 81.869 182.5 182.5 182.5s182.5-81.869 182.5-182.5c0-57.543-27.244-111.699-73.174-146.118h55.147c35.834 40.273 55.527 92.029 55.527 146.119a7.5 7.5 0 007.5 7.5h30c4.162 0 7.52-3.358 7.52-7.5 0-.189-.007-.376-.021-.561zM295.667 65.469l-7.262 20.914H263.74c-4.143 0-7.5 3.358-7.5 7.5s3.357 7.5 7.5 7.5h22.5v35h-185v-35h132.5c4.143 0 7.5-3.358 7.5-7.5s-3.357-7.5-7.5-7.5H99.075L75.209 17.661l220.458 47.808zM361.24 287.5c0 92.36-75.141 167.5-167.5 167.5s-167.5-75.14-167.5-167.5c0-53.949 26.102-104.648 69.919-136.118h195.162c43.817 31.47 69.919 82.169 69.919 136.118zm67.382-7.5c-1.774-56.214-23.472-109.646-61.549-151.187a7.497 7.497 0 00-5.528-2.432H301.24v-15h69.96l2.211 2.285c43.612 45.066 68.381 103.88 70.219 166.334h-15.008z"/><path d="M266.238 300c-16.193 0-23.81-4.202-32.628-9.067-9.289-5.124-19.816-10.933-39.874-10.933-20.057 0-30.585 5.809-39.873 10.933-8.818 4.865-16.434 9.067-32.626 9.067s-23.809-4.202-32.626-9.067C79.323 285.809 68.796 280 48.74 280a7.5 7.5 0 00-7.5 7.5c0 34.862 12.126 68.975 34.144 96.056a7.5 7.5 0 0011.639-9.463c-18.19-22.373-28.892-50.071-30.555-78.729 11.152 1.12 17.614 4.685 24.897 8.704C90.653 309.192 101.181 315 121.237 315s30.584-5.809 39.872-10.933c8.818-4.865 16.434-9.067 32.627-9.067s23.81 4.202 32.628 9.067C235.653 309.192 246.18 315 266.238 315s30.585-5.809 39.874-10.933c7.285-4.019 13.748-7.585 24.906-8.704C326.931 367.538 266.92 425 193.74 425c-31.427 0-62.179-10.932-86.593-30.782a7.5 7.5 0 00-9.463 11.639C124.765 427.874 158.878 440 193.74 440c84.089 0 152.5-68.411 152.5-152.5a7.5 7.5 0 00-7.5-7.5c-20.058 0-30.585 5.809-39.874 10.933-8.818 4.866-16.434 9.067-32.628 9.067z"/></g></svg>