<svg version="1.0" xmlns="http://www.w3.org/2000/svg" width="346.667" height="346.667" viewBox="0 0 260 260"><path d="M0 130v130h260V0H0v130zm137.2-85.9c18.6 2 31.9 7.8 41.1 18 6.8 7.5 9.2 14.1 9.2 25.4-.1 6.8-.5 9-3.2 14.7-3.6 7.6-9 13.4-16.4 17.7l-5.2 2.9 6.6 3.2c27.1 13.2 32.5 49.3 10.8 71.1-12.7 12.7-29.8 18.1-62.1 19.5-13.3.6-47-.9-50.5-2.3-1.3-.4-1.5-11.7-1.5-83.8 0-78.5.1-83.4 1.8-83.9 2.2-.7 20-2.5 27.7-2.9 15.1-.8 32.3-.6 41.7.4z"/><path d="M108.8 73.7l-2.8.4v37.1l11.8-.4c9.3-.3 12.7-.9 16.7-2.7 8.7-3.9 12.5-8.8 12.5-16.5 0-12.2-7.8-17.7-25.5-18.2-5.5-.1-11.2 0-12.7.3zm-2.8 89.7V186h11.2c13.6 0 21.1-1.9 26.6-6.6 5.1-4.3 7.2-8.9 7.2-15.7 0-9.8-3.5-15.1-13-19.5-4.8-2.2-7.2-2.6-18.7-3l-13.3-.4v22.6z"/></svg>